<svg width="960" height="720" viewBox="0 0 960 720" fill="none" xmlns="http://www.w3.org/2000/svg">
<g clip-path="url(#clip0)">
<path fill-rule="evenodd" clip-rule="evenodd" d="M0 0H960V720H0V0Z" fill="url(#paint0_linear)"/>
<path d="M-35.0234 638.751C-50.1395 638.751 -62.3935 651.005 -62.3935 666.121C-62.3935 668.384 -62.1187 670.584 -61.6006 672.688H-100.297C-115.561 672.688 -127.934 685.062 -127.934 700.325C-127.934 715.589 -115.561 727.963 -100.297 727.963H227.483C242.747 727.963 255.121 715.589 255.121 700.325C255.121 692.995 252.209 685.966 247.026 680.783C241.843 675.599 234.813 672.688 227.483 672.688H202.01C202.529 670.584 202.803 668.384 202.803 666.121C202.803 658.862 199.92 651.9 194.787 646.767C189.654 641.634 182.692 638.751 175.433 638.751H-35.0234Z" fill="#FAFAFA" fill-opacity="0.53"/>
<path d="M198.558 183.259C180.798 183.259 166.401 197.657 166.401 215.417C166.401 219.146 167.035 222.726 168.202 226.056H128.633C110.872 226.056 96.4751 240.453 96.4751 258.213C96.4751 275.973 110.872 290.371 128.633 290.371H527.656C545.416 290.371 559.814 275.973 559.814 258.213C559.814 249.685 556.426 241.505 550.395 235.475C544.364 229.444 536.185 226.056 527.656 226.056H476.662C477.829 222.726 478.464 219.146 478.464 215.417C478.464 206.888 475.076 198.709 469.045 192.678C463.014 186.648 454.835 183.259 446.306 183.259H198.558Z" fill="#FAFAFA" fill-opacity="0.74"/>
<path d="M791.491 270.281C776.227 270.281 763.854 282.655 763.854 297.919C763.854 301.127 764.4 304.208 765.406 307.073H740.113C724.849 307.073 712.475 319.447 712.475 334.711C712.475 349.975 724.849 362.349 740.113 362.349H1025.28C1040.54 362.349 1052.92 349.975 1052.92 334.711C1052.92 327.381 1050 320.352 1044.82 315.168C1039.64 309.985 1032.61 307.073 1025.28 307.073H991.593C992.598 304.208 993.145 301.127 993.145 297.919C993.145 290.589 990.233 283.559 985.05 278.376C979.867 273.193 972.837 270.281 965.507 270.281H791.491Z" fill="#FAFAFA" fill-opacity="0.7"/>
<path fill-rule="evenodd" clip-rule="evenodd" d="M657.583 719.992C657.583 552.976 792.976 417.583 959.992 417.583C1040.2 417.583 1117.12 449.444 1173.83 506.156C1230.54 562.869 1262.4 639.788 1262.4 719.992C1262.4 887.008 1127.01 1022.4 959.992 1022.4C792.976 1022.4 657.583 887.008 657.583 719.992Z" fill="url(#paint1_radial)"/>
<path d="M367.491 494.281C352.227 494.281 339.853 506.655 339.853 521.919C339.853 525.127 340.4 528.208 341.406 531.073H316.113C300.849 531.073 288.475 543.447 288.475 558.711C288.475 573.975 300.849 586.349 316.113 586.349H601.278C616.542 586.349 628.916 573.975 628.916 558.711C628.916 551.381 626.004 544.352 620.821 539.168C615.638 533.985 608.608 531.073 601.278 531.073H567.593C568.598 528.208 569.145 525.127 569.145 521.919C569.145 514.589 566.233 507.559 561.05 502.376C555.867 497.193 548.837 494.281 541.507 494.281H367.491Z" fill="#FAFAFA" fill-opacity="0.66"/>
<path fill-rule="evenodd" clip-rule="evenodd" d="M841.423 719.99C841.423 654.507 894.507 601.423 959.99 601.423C991.435 601.423 1021.59 613.914 1043.83 636.15C1066.06 658.386 1078.56 688.544 1078.56 719.99C1078.56 785.472 1025.47 838.556 959.99 838.556C894.507 838.556 841.423 785.472 841.423 719.99Z" fill="#FFFBF2"/>
</g>
<defs>
<linearGradient id="paint0_linear" x1="1.25801e-08" y1="-0.00347519" x2="-0.00260639" y2="720" gradientUnits="userSpaceOnUse">
<stop stop-color="#EF7D7D"/>
<stop offset="1" stop-color="#F6EAC8"/>
</linearGradient>
<radialGradient id="paint1_radial" cx="0" cy="0" r="1" gradientUnits="userSpaceOnUse" gradientTransform="translate(959.992 719.992) scale(427.672)">
<stop stop-color="#F6EAC8" stop-opacity="0.694118"/>
<stop offset="1" stop-color="#F6EAC8" stop-opacity="0"/>
<stop offset="1" stop-color="white" stop-opacity="0"/>
</radialGradient>
<clipPath id="clip0">
<rect width="960" height="720" fill="white"/>
</clipPath>
</defs>
</svg>
